<mxfile host="app.diagrams.net" modified="2024-01-02T07:06:42.473Z" agent="Mozilla/5.0 (Windows NT 10.0; Win64; x64) AppleWebKit/537.36 (KHTML, like Gecko) Chrome/120.0.0.0 Safari/537.36" etag="Fuc5OMTcb0tElUrv31_q" version="22.1.16" type="github">
  <diagram name="Page-1" id="81UzEldXR9N0YXu5kqvc">
    <mxGraphModel dx="1434" dy="875" grid="0" gridSize="10" guides="1" tooltips="1" connect="1" arrows="1" fold="1" page="0" pageScale="1" pageWidth="850" pageHeight="1100" math="0" shadow="0">
      <root>
        <mxCell id="0" />
        <mxCell id="1" parent="0" />
        <mxCell id="C63g-51VBROic81853OJ-11" value="" style="edgeStyle=none;curved=1;rounded=0;orthogonalLoop=1;jettySize=auto;html=1;fontSize=12;startSize=8;endSize=8;" edge="1" parent="1" source="C63g-51VBROic81853OJ-1" target="C63g-51VBROic81853OJ-10">
          <mxGeometry relative="1" as="geometry" />
        </mxCell>
        <mxCell id="C63g-51VBROic81853OJ-1" value="start" style="strokeWidth=2;html=1;shape=mxgraph.flowchart.start_1;whiteSpace=wrap;fontSize=16;" vertex="1" parent="1">
          <mxGeometry x="141" y="-13" width="159" height="38" as="geometry" />
        </mxCell>
        <mxCell id="C63g-51VBROic81853OJ-16" value="" style="edgeStyle=none;curved=1;rounded=0;orthogonalLoop=1;jettySize=auto;html=1;fontSize=12;startSize=8;endSize=8;" edge="1" parent="1" source="C63g-51VBROic81853OJ-3" target="C63g-51VBROic81853OJ-15">
          <mxGeometry relative="1" as="geometry" />
        </mxCell>
        <mxCell id="C63g-51VBROic81853OJ-3" value="Take input from user" style="rounded=1;whiteSpace=wrap;html=1;absoluteArcSize=1;arcSize=14;strokeWidth=2;fontSize=16;" vertex="1" parent="1">
          <mxGeometry x="154.75" y="134" width="131.5" height="49" as="geometry" />
        </mxCell>
        <mxCell id="C63g-51VBROic81853OJ-9" style="edgeStyle=none;curved=1;rounded=0;orthogonalLoop=1;jettySize=auto;html=1;exitX=0.5;exitY=0;exitDx=0;exitDy=0;fontSize=12;startSize=8;endSize=8;" edge="1" parent="1" source="C63g-51VBROic81853OJ-3" target="C63g-51VBROic81853OJ-3">
          <mxGeometry relative="1" as="geometry" />
        </mxCell>
        <mxCell id="C63g-51VBROic81853OJ-14" value="" style="edgeStyle=none;curved=1;rounded=0;orthogonalLoop=1;jettySize=auto;html=1;fontSize=12;startSize=8;endSize=8;" edge="1" parent="1" source="C63g-51VBROic81853OJ-10" target="C63g-51VBROic81853OJ-3">
          <mxGeometry relative="1" as="geometry" />
        </mxCell>
        <mxCell id="C63g-51VBROic81853OJ-10" value="_ _ _ _" style="shape=parallelogram;perimeter=parallelogramPerimeter;whiteSpace=wrap;html=1;fixedSize=1;fontSize=16;strokeWidth=2;" vertex="1" parent="1">
          <mxGeometry x="160.5" y="57" width="114.5" height="36" as="geometry" />
        </mxCell>
        <mxCell id="C63g-51VBROic81853OJ-18" value="" style="edgeStyle=none;curved=1;rounded=0;orthogonalLoop=1;jettySize=auto;html=1;fontSize=12;startSize=8;endSize=8;" edge="1" parent="1" source="C63g-51VBROic81853OJ-15" target="C63g-51VBROic81853OJ-17">
          <mxGeometry relative="1" as="geometry" />
        </mxCell>
        <mxCell id="C63g-51VBROic81853OJ-20" value="" style="edgeStyle=none;curved=1;rounded=0;orthogonalLoop=1;jettySize=auto;html=1;fontSize=12;startSize=8;endSize=8;" edge="1" parent="1" source="C63g-51VBROic81853OJ-15" target="C63g-51VBROic81853OJ-19">
          <mxGeometry relative="1" as="geometry" />
        </mxCell>
        <mxCell id="C63g-51VBROic81853OJ-15" value="if&amp;nbsp;&lt;br&gt;input is in word" style="rhombus;whiteSpace=wrap;html=1;fontSize=16;rounded=1;arcSize=14;strokeWidth=2;" vertex="1" parent="1">
          <mxGeometry x="168.75" y="235" width="103.5" height="100" as="geometry" />
        </mxCell>
        <mxCell id="C63g-51VBROic81853OJ-25" value="" style="edgeStyle=none;curved=1;rounded=0;orthogonalLoop=1;jettySize=auto;html=1;fontSize=12;startSize=8;endSize=8;" edge="1" parent="1" source="C63g-51VBROic81853OJ-17" target="C63g-51VBROic81853OJ-24">
          <mxGeometry relative="1" as="geometry" />
        </mxCell>
        <mxCell id="C63g-51VBROic81853OJ-17" value="Display hangman" style="whiteSpace=wrap;html=1;fontSize=16;rounded=1;arcSize=14;strokeWidth=2;" vertex="1" parent="1">
          <mxGeometry x="384" y="255" width="120" height="60" as="geometry" />
        </mxCell>
        <mxCell id="C63g-51VBROic81853OJ-22" value="" style="edgeStyle=none;curved=1;rounded=0;orthogonalLoop=1;jettySize=auto;html=1;fontSize=12;startSize=8;endSize=8;" edge="1" parent="1" source="C63g-51VBROic81853OJ-19" target="C63g-51VBROic81853OJ-21">
          <mxGeometry relative="1" as="geometry" />
        </mxCell>
        <mxCell id="C63g-51VBROic81853OJ-19" value="Display _ A_ _" style="whiteSpace=wrap;html=1;fontSize=16;rounded=1;arcSize=14;strokeWidth=2;" vertex="1" parent="1">
          <mxGeometry x="-63" y="255" width="120" height="60" as="geometry" />
        </mxCell>
        <mxCell id="C63g-51VBROic81853OJ-23" value="" style="edgeStyle=none;curved=1;rounded=0;orthogonalLoop=1;jettySize=auto;html=1;fontSize=12;startSize=8;endSize=8;" edge="1" parent="1" source="C63g-51VBROic81853OJ-21" target="C63g-51VBROic81853OJ-10">
          <mxGeometry relative="1" as="geometry" />
        </mxCell>
        <mxCell id="C63g-51VBROic81853OJ-28" value="" style="edgeStyle=none;curved=1;rounded=0;orthogonalLoop=1;jettySize=auto;html=1;fontSize=12;startSize=8;endSize=8;entryX=0;entryY=0.5;entryDx=0;entryDy=0;" edge="1" parent="1" source="C63g-51VBROic81853OJ-21" target="C63g-51VBROic81853OJ-27">
          <mxGeometry relative="1" as="geometry">
            <mxPoint x="153" y="495" as="targetPoint" />
            <Array as="points">
              <mxPoint x="-297" y="372" />
            </Array>
          </mxGeometry>
        </mxCell>
        <mxCell id="C63g-51VBROic81853OJ-21" value="if _ A _ _ == word" style="rhombus;whiteSpace=wrap;html=1;fontSize=16;rounded=1;arcSize=14;strokeWidth=2;" vertex="1" parent="1">
          <mxGeometry x="-43" y="65" width="80" height="80" as="geometry" />
        </mxCell>
        <mxCell id="C63g-51VBROic81853OJ-26" value="" style="edgeStyle=none;curved=1;rounded=0;orthogonalLoop=1;jettySize=auto;html=1;fontSize=12;startSize=8;endSize=8;" edge="1" parent="1" source="C63g-51VBROic81853OJ-24" target="C63g-51VBROic81853OJ-10">
          <mxGeometry relative="1" as="geometry" />
        </mxCell>
        <mxCell id="C63g-51VBROic81853OJ-29" style="edgeStyle=none;curved=1;rounded=0;orthogonalLoop=1;jettySize=auto;html=1;fontSize=12;startSize=8;endSize=8;entryX=1;entryY=0.5;entryDx=0;entryDy=0;" edge="1" parent="1" source="C63g-51VBROic81853OJ-24" target="C63g-51VBROic81853OJ-27">
          <mxGeometry relative="1" as="geometry">
            <mxPoint x="281" y="524" as="targetPoint" />
            <Array as="points">
              <mxPoint x="667" y="288" />
              <mxPoint x="390" y="469" />
            </Array>
          </mxGeometry>
        </mxCell>
        <mxCell id="C63g-51VBROic81853OJ-24" value="if hangman is complete" style="rhombus;whiteSpace=wrap;html=1;fontSize=16;rounded=1;arcSize=14;strokeWidth=2;" vertex="1" parent="1">
          <mxGeometry x="373" y="54" width="142" height="93" as="geometry" />
        </mxCell>
        <mxCell id="C63g-51VBROic81853OJ-27" value="End" style="ellipse;whiteSpace=wrap;html=1;fontSize=16;rounded=1;arcSize=14;strokeWidth=2;" vertex="1" parent="1">
          <mxGeometry x="180.5" y="440" width="80" height="80" as="geometry" />
        </mxCell>
      </root>
    </mxGraphModel>
  </diagram>
</mxfile>
